# xmcd
#
# Track frame offsets:
#	150
#	13103
#	31433
#	42959
#	65933
#	81651
#	100827
#	117613
#	137963
#
# Disc length: 2015 seconds
#
# Revision: 0
# Processed by: cddbd v1.5.2PL0 Copyright (c) Steve Scherf et al.
# Submitted via: audiograbber 1.83.01
#
DISCID=8807dd09
DTITLE=Various Artist - Country Radio January 2011
DYEAR=2011
DGENRE=Country
TTITLE0=Swingin Leann Rimes
TTITLE1=I cant love you back Easton Corbin
TTITLE2=Ring of fire alan Jackson
TTITLE3=This Darius Rucker
TTITLE4=Old School Chuck Wicks
TTITLE5=Dont you wanna stay Jason Aldean and Kelly Clarkson
TTITLE6=Wont be lonely long Josh Thompson
TTITLE7=Little miss Sugarland
TTITLE8=Kiss This Aaron Tippin
EXTD=
EXTT0=
EXTT1=
EXTT2=
EXTT3=
EXTT4=
EXTT5=
EXTT6=
EXTT7=
EXTT8=
PLAYORDER=
